<svg version="1.1" id="Layer_1" xmlns="http://www.w3.org/2000/svg" xmlns:xlink="http://www.w3.org/1999/xlink" x="0px" y="0px"
	 width="100%" viewBox="0 0 1024 1024" enable-background="new 0 0 1024 1024" xml:space="preserve">
<path fill="#19314F" opacity="1.000000" stroke="none" 
	d="
M473.000000,1025.000000 
	C315.333344,1025.000000 158.166672,1025.000000 1.000000,1025.000000 
	C1.000000,683.666687 1.000000,342.333344 1.000000,1.000000 
	C342.333344,1.000000 683.666687,1.000000 1025.000000,1.000000 
	C1025.000000,342.333344 1025.000000,683.666687 1025.000000,1025.000000 
	C841.166687,1025.000000 657.333313,1025.000000 473.000000,1025.000000 
M436.968323,511.002472 
	C441.267639,511.669495 445.566986,512.336548 450.063507,513.846558 
	C450.150299,515.623596 450.237061,517.400635 450.332367,519.351685 
	C456.109009,519.351685 461.505951,519.351685 467.364716,519.351685 
	C467.364716,507.614197 467.169006,496.133728 467.477509,484.666870 
	C467.577087,480.965179 468.433716,477.043640 469.948242,473.674072 
	C472.485413,468.029297 479.203125,465.440643 485.660645,466.809540 
	C490.988434,467.938934 493.713898,471.093140 494.086853,478.165497 
	C494.568573,487.300354 494.448120,496.467804 494.546051,505.621643 
	C494.595459,510.237518 494.554688,514.854309 494.554688,519.249512 
	C500.726807,519.249512 506.163177,519.249512 511.875275,519.249512 
	C511.875275,504.701691 511.874817,490.544830 511.875397,476.387970 
	C511.876099,459.382996 500.228027,449.677338 483.368164,452.375000 
	C476.690002,453.443542 471.822540,457.257446 466.799988,462.909393 
	C466.799988,459.111816 466.799988,456.517822 466.799988,453.143463 
	C461.264465,453.143463 456.131439,453.143463 450.968506,452.347504 
	C448.817932,444.681458 445.364014,437.335938 450.260101,429.122864 
	C454.789856,421.524292 453.832886,419.928650 445.720306,415.863495 
	C444.531708,415.267944 443.329712,414.695557 442.166199,414.053986 
	C437.476074,411.467834 435.872803,412.187317 433.731537,417.204468 
	C432.347565,420.447266 430.448608,423.470245 428.681396,426.776978 
	C430.030609,426.838135 432.444794,426.441162 434.435669,427.181915 
	C436.378357,427.904724 437.888489,429.789948 439.588501,431.164856 
	C438.453857,432.107727 437.319214,433.050598 436.014557,433.116821 
	C436.014557,431.845001 436.014557,430.573181 436.014557,429.082092 
	C429.733887,429.082092 423.974884,429.082092 418.017151,429.082092 
	C418.017151,459.185455 418.017151,489.092896 418.017151,519.227966 
	C424.016022,519.227966 429.766296,519.227966 435.644470,519.227966 
	C435.807953,516.289246 435.954956,513.646545 436.968323,511.002472 
M350.953827,486.216461 
	C351.123688,486.505096 351.293518,486.793701 351.856598,487.565430 
	C355.273651,492.477600 358.690704,497.389740 362.107727,502.301910 
	C363.173676,466.539368 363.220093,431.234467 363.055756,395.930542 
	C363.046143,393.862518 361.823364,391.321075 360.339111,389.812683 
	C344.447601,373.661041 328.442505,357.619507 312.293243,341.725891 
	C310.715729,340.173340 307.971954,339.020752 305.763885,339.011353 
	C270.773071,338.862335 235.780991,338.868103 200.790680,339.082581 
	C198.317581,339.097748 195.312454,340.437439 193.484070,342.152161 
	C185.832687,349.327972 178.642715,356.993622 171.056396,364.241913 
	C168.035461,367.128204 166.784943,370.279236 166.795074,374.384644 
	C166.897095,415.707764 166.898987,457.031097 166.944748,498.354370 
	C166.946274,499.728760 167.114517,501.102997 167.214767,502.624725 
	C176.023422,493.130585 179.483032,482.619629 179.146851,469.776031 
	C178.371109,440.137726 179.301270,410.457336 178.738831,380.809204 
	C178.588226,372.869659 183.093750,369.624359 188.306396,365.166290 
	C188.306396,394.814209 188.306396,423.744934 188.306396,452.968933 
	C191.580643,453.302063 194.709961,453.620483 198.629089,453.972778 
	C199.419556,453.981445 200.210022,453.990112 201.001312,454.498779 
	C201.001480,454.665436 201.001663,454.832123 200.976379,455.749817 
	C199.789688,460.336761 198.160019,464.504333 192.792786,465.752960 
	C192.068924,465.921356 191.590897,467.146454 190.468903,468.390839 
	C186.366699,473.003082 186.826431,475.654053 192.449188,479.460266 
	C183.873154,496.907990 175.292023,514.366028 166.670166,531.906982 
	C164.569458,532.009155 162.463943,532.111572 160.429413,532.210510 
	C158.721893,546.639099 166.510254,560.898499 179.734039,568.016052 
	C194.380219,575.899170 212.168686,573.748657 225.977478,562.693176 
	C233.915741,556.337708 240.375885,542.845703 237.835007,532.257812 
	C231.904587,531.629028 231.854034,531.652344 229.271652,526.053040 
	C224.464645,515.630310 219.727646,505.175232 214.951920,494.738007 
	C212.476410,489.327820 209.980377,483.927032 207.375443,478.265198 
	C221.492004,475.685852 235.016403,473.214691 247.580917,470.918945 
	C250.833328,474.860260 253.653854,478.055511 256.195984,481.458710 
	C257.359070,483.015747 258.720154,484.979401 258.726807,486.763367 
	C258.842682,517.923462 258.742310,549.084412 258.763733,580.245117 
	C258.765381,582.644409 258.210724,583.962708 255.795792,585.129883 
	C248.350555,588.728516 244.825409,594.967957 244.974869,603.260315 
	C245.009674,605.190796 244.980011,607.122498 244.980011,609.546387 
	C237.795273,609.546387 231.144165,609.449341 224.497086,609.571533 
	C216.574371,609.717163 209.755981,614.420837 207.770035,622.094543 
	C206.312927,627.724731 206.185547,633.699158 205.432281,639.788940 
	C245.388718,639.788940 284.139648,639.788940 323.095215,639.788940 
	C323.095215,635.573242 323.454712,631.563049 323.028625,627.638062 
	C321.686646,615.275757 314.847992,609.308838 302.485352,609.306274 
	C296.716339,609.305054 290.947357,609.306030 284.867462,609.306030 
	C285.639191,597.498596 283.035675,587.929382 270.771027,583.867554 
	C270.771027,551.065369 270.762390,518.414124 270.809235,485.762909 
	C270.810791,484.689117 271.079010,483.368683 271.730286,482.584808 
	C274.857422,478.821198 278.159210,475.202698 281.725098,471.163208 
	C294.414398,473.393738 307.786865,475.744324 321.489563,478.152985 
	C320.768951,479.961243 320.280396,481.359039 319.667023,482.699768 
	C313.507172,496.164215 307.332458,509.621857 301.149139,523.075562 
	C298.972626,527.811157 298.149384,534.019409 290.338257,532.290894 
	C290.541260,548.358459 296.664795,560.479309 310.497375,567.671509 
	C325.110870,575.269714 339.716797,574.747681 353.366302,565.036072 
	C364.529175,557.093689 368.978912,545.791931 369.070068,533.782471 
	C365.628967,531.829895 361.981689,531.048950 360.943695,528.967041 
	C352.784241,512.601318 345.123932,495.986816 337.309875,479.448914 
	C337.722656,479.516937 338.135468,479.584961 338.548248,479.652985 
	C339.251312,476.485291 339.954407,473.317596 341.162567,469.772064 
	C341.711456,468.353546 341.867401,466.492157 342.878723,465.594879 
	C346.802551,462.113556 348.138275,457.904114 348.060089,452.762115 
	C347.862152,439.746307 348.019165,426.725342 347.864899,413.708405 
	C347.850159,412.464752 346.648285,411.235138 346.218018,409.280090 
	C347.873108,408.851440 349.528198,408.422791 351.416779,408.907471 
	C351.363342,434.588837 351.309906,460.270203 350.953827,486.216461 
M890.748962,491.479492 
	C894.494568,478.972961 898.240173,466.466461 902.088928,453.615540 
	C900.142029,453.516998 898.674622,453.395477 897.205872,453.375885 
	C884.624878,453.208191 884.718445,453.236938 881.683472,465.453247 
	C879.064270,475.995880 876.199768,486.477570 873.443787,496.986176 
	C873.089539,497.032776 872.735229,497.079376 872.380981,497.125977 
	C868.150574,482.584442 863.920227,468.042908 859.665649,453.418213 
	C854.385986,453.418213 849.278198,453.418213 843.921814,453.418213 
	C839.804443,468.357391 835.710632,483.211060 831.616821,498.064697 
	C831.337708,498.038361 831.058533,498.011993 830.779358,497.985626 
	C826.705627,483.199524 822.631836,468.413391 818.583862,453.720642 
	C812.521851,453.720642 806.966125,453.720642 801.083069,453.720642 
	C806.666626,471.246094 812.084106,488.332703 817.564819,505.399017 
	C819.075989,510.104431 819.473389,516.607666 822.751404,518.905212 
	C826.106934,521.257019 832.369629,519.466980 837.359741,519.470581 
	C837.824951,519.470947 838.290222,519.331909 839.054443,519.209778 
	C843.153564,504.504395 847.260254,489.771912 851.703186,473.832977 
	C856.389526,489.823029 860.718933,504.595337 865.084290,519.490295 
	C869.979309,519.490295 874.463867,519.364441 878.936829,519.538513 
	C881.536255,519.639709 882.670654,518.773987 883.384338,516.168701 
	C885.581604,508.147583 888.135498,500.224213 890.748962,491.479492 
M528.534546,464.035858 
	C519.685974,476.391937 519.147278,489.663757 524.779785,503.287598 
	C528.677185,512.714722 536.398132,518.418945 546.055664,520.569824 
	C557.085083,523.026123 567.116760,520.524353 574.900696,510.400909 
	C575.160278,513.951111 575.356689,516.636963 575.542603,519.179321 
	C581.312256,519.179321 586.537354,519.179321 591.835205,519.179321 
	C591.835205,488.440521 591.835205,458.077606 591.835205,427.753845 
	C586.062378,427.753845 580.678345,427.753845 574.992676,427.753845 
	C574.992676,433.631287 574.992676,439.115204 574.992676,444.599121 
	C574.992676,450.008942 574.992676,455.418793 574.992676,461.284851 
	C557.288696,448.424438 541.558899,449.349915 528.534546,464.035858 
M610.754150,531.170105 
	C608.535645,530.709412 606.317139,530.248718 603.600098,529.684448 
	C603.600098,534.018433 603.498413,538.125977 603.683472,542.220642 
	C603.721924,543.069275 604.703491,544.446838 605.456360,544.605896 
	C616.816223,547.005981 629.254822,546.260925 636.030579,533.321289 
	C637.414978,530.677429 638.678223,527.952209 639.767334,525.174438 
	C648.756409,502.247711 657.696350,479.301758 666.621582,456.350128 
	C666.946533,455.514526 666.967102,454.560577 667.194397,453.302673 
	C662.321899,453.302673 657.832214,453.523407 653.376831,453.227631 
	C650.228821,453.018707 649.059998,454.390869 648.133667,457.131287 
	C643.876831,469.725555 639.435974,482.257874 635.028687,494.800964 
	C634.594421,496.036896 633.938293,497.194824 633.152466,498.891266 
	C627.734192,484.429230 622.643250,470.744720 617.441345,457.102600 
	C616.912842,455.716614 615.782471,453.567535 614.818604,453.504730 
	C609.429810,453.153931 604.006287,453.335968 598.068054,453.335968 
	C598.701050,455.092102 598.943176,455.853394 599.245667,456.589844 
	C607.144226,475.817963 615.093811,495.025330 622.932922,514.277710 
	C626.553894,523.170593 621.242126,530.976990 610.754150,531.170105 
M753.205444,474.434967 
	C754.602478,473.143372 756.253296,472.036133 757.350037,470.526367 
	C760.974548,465.537109 768.789368,463.606995 774.895325,466.403931 
	C779.097778,468.328949 780.508118,472.039734 779.072937,478.358917 
	C772.199890,479.200256 765.087341,479.866852 758.048096,480.992279 
	C751.538330,482.033051 745.340759,484.138489 741.130310,489.681732 
	C732.355835,501.233521 739.855347,517.918640 755.115906,520.831604 
	C764.890564,522.697388 773.360901,519.988586 780.643799,512.422852 
	C780.921143,515.246582 781.124329,517.315430 781.321533,519.323669 
	C786.690979,519.323669 791.760925,519.323669 796.911865,519.323669 
	C796.911865,503.769897 797.094727,488.612213 796.833923,473.462189 
	C796.705505,466.003540 793.152771,460.075500 786.661560,456.152618 
	C776.524231,450.026184 758.071289,450.955994 748.551758,457.969360 
	C743.478210,461.707275 740.466736,466.558167 739.854797,473.473541 
	C744.203796,473.755157 748.303406,474.020630 753.205444,474.434967 
M673.937256,500.499390 
	C673.937256,506.747040 673.937256,512.994690 673.937256,519.455200 
	C694.008972,519.455200 713.402771,519.455200 732.760620,519.455200 
	C732.760620,514.138184 732.760620,509.101959 732.760620,503.599060 
	C718.982239,503.599060 705.605591,503.599060 691.766113,503.599060 
	C691.766113,478.428772 691.766113,453.732269 691.766113,429.246460 
	C685.551453,429.246460 679.815002,429.246460 673.932922,429.246460 
	C673.932922,452.914459 673.932922,476.207092 673.937256,500.499390 
z"/>
<path fill="#F8F9FA" opacity="1.000000" stroke="none" 
	d="
M340.657471,470.149902 
	C339.954407,473.317596 339.251312,476.485291 338.548248,479.652985 
	C338.135468,479.584961 337.722656,479.516937 337.309875,479.448914 
	C345.123932,495.986816 352.784241,512.601318 360.943695,528.967041 
	C361.981689,531.048950 365.628967,531.829895 369.070068,533.782471 
	C368.978912,545.791931 364.529175,557.093689 353.366302,565.036072 
	C339.716797,574.747681 325.110870,575.269714 310.497375,567.671509 
	C296.664795,560.479309 290.541260,548.358459 290.338257,532.290894 
	C298.149384,534.019409 298.972626,527.811157 301.149139,523.075562 
	C307.332458,509.621857 313.507172,496.164215 319.667023,482.699768 
	C320.280396,481.359039 320.768951,479.961243 321.489563,478.152985 
	C307.786865,475.744324 294.414398,473.393738 281.725098,471.163208 
	C278.159210,475.202698 274.857422,478.821198 271.730286,482.584808 
	C271.079010,483.368683 270.810791,484.689117 270.809235,485.762909 
	C270.762390,518.414124 270.771027,551.065369 270.771027,583.867554 
	C283.035675,587.929382 285.639191,597.498596 284.867462,609.306030 
	C290.947357,609.306030 296.716339,609.305054 302.485352,609.306274 
	C314.847992,609.308838 321.686646,615.275757 323.028625,627.638062 
	C323.454712,631.563049 323.095215,635.573242 323.095215,639.788940 
	C284.139648,639.788940 245.388718,639.788940 205.432281,639.788940 
	C206.185547,633.699158 206.312927,627.724731 207.770035,622.094543 
	C209.755981,614.420837 216.574371,609.717163 224.497086,609.571533 
	C231.144165,609.449341 237.795273,609.546387 244.980011,609.546387 
	C244.980011,607.122498 245.009674,605.190796 244.974869,603.260315 
	C244.825409,594.967957 248.350555,588.728516 255.795792,585.129883 
	C258.210724,583.962708 258.765381,582.644409 258.763733,580.245117 
	C258.742310,549.084412 258.842682,517.923462 258.726807,486.763367 
	C258.720154,484.979401 257.359070,483.015747 256.195984,481.458710 
	C253.653854,478.055511 250.833328,474.860260 247.580917,470.918945 
	C235.016403,473.214691 221.492004,475.685852 207.375443,478.265198 
	C209.980377,483.927032 212.476410,489.327820 214.951920,494.738007 
	C219.727646,505.175232 224.464645,515.630310 229.271652,526.053040 
	C231.854034,531.652344 231.904587,531.629028 237.835007,532.257812 
	C240.375885,542.845703 233.915741,556.337708 225.977478,562.693176 
	C212.168686,573.748657 194.380219,575.899170 179.734039,568.016052 
	C166.510254,560.898499 158.721893,546.639099 160.429413,532.210510 
	C162.463943,532.111572 164.569458,532.009155 166.670166,531.906982 
	C175.292023,514.366028 183.873154,496.907990 192.449188,479.460266 
	C186.826431,475.654053 186.366699,473.003082 191.141693,468.127075 
	C210.797623,464.804108 229.780777,461.744843 248.796188,458.680420 
	C251.031860,450.818054 255.642578,445.723450 264.381989,444.907379 
	C271.812561,445.558990 276.156860,449.712494 279.239960,455.684570 
	C279.843628,456.853912 280.857758,458.443848 281.911194,458.645538 
	C288.571960,459.920563 295.297058,460.859222 302.379822,462.045410 
	C312.735291,463.717499 322.738342,465.105530 332.671478,466.883942 
	C335.439667,467.379547 338.001190,469.029510 340.657471,470.149902 
M184.762894,520.278259 
	C183.026901,523.982422 181.290894,527.686646 179.393707,531.734741 
	C193.013138,531.734741 206.036957,531.734741 219.890259,531.734741 
	C213.159042,517.123962 206.677292,503.054657 199.787048,488.098633 
	C194.582626,499.216766 189.816284,509.398956 184.762894,520.278259 
M336.730560,503.793701 
	C334.364014,498.810364 331.997498,493.827057 329.212311,487.962158 
	C322.371887,503.120972 315.941010,517.372253 309.515778,531.611023 
	C323.064941,531.611023 336.053070,531.611023 349.360840,531.611023 
	C345.099243,522.249451 341.057678,513.371277 336.730560,503.793701 
M305.939484,620.950012 
	C279.135193,620.955872 252.330872,620.948669 225.526611,620.978271 
	C219.962128,620.984436 217.932068,622.989380 217.673492,628.362305 
	C249.030655,628.362305 280.393188,628.362305 311.959045,628.362305 
	C311.564575,624.623413 310.557617,621.835388 305.939484,620.950012 
M200.280197,560.736450 
	C201.767609,560.561646 203.271652,560.474976 204.739700,560.197632 
	C214.185425,558.413330 221.881775,554.372192 225.261749,544.324707 
	C207.919754,544.324707 190.955704,544.324707 174.013260,544.324707 
	C174.013260,545.068787 173.939819,545.413879 174.030045,545.708984 
	C174.174164,546.180481 174.412079,546.626343 174.636078,547.070068 
	C179.783508,557.266907 188.826584,560.425232 200.280197,560.736450 
M337.157959,559.882935 
	C345.864136,557.909485 352.459839,553.569641 355.267883,544.246704 
	C337.804382,544.246704 320.963959,544.246704 303.722748,544.246704 
	C304.041046,545.260498 304.144714,545.889038 304.421509,546.428650 
	C310.115021,557.527954 320.929565,562.115662 337.157959,559.882935 
M266.076935,594.145081 
	C257.089203,594.387146 253.794693,600.373352 257.758484,609.151489 
	C262.726837,609.151489 267.666290,609.151489 272.539520,609.151489 
	C274.700134,600.458435 273.668304,597.845947 266.076935,594.145081 
M258.926788,468.259277 
	C261.207397,471.929138 264.370880,473.297943 268.165680,470.927307 
	C271.727692,468.702148 272.481506,465.144196 270.969116,461.309967 
	C269.640076,457.940613 267.326324,455.513672 263.344055,456.688324 
	C258.999054,457.970032 257.586212,461.335815 258.069977,465.627747 
	C258.142639,466.272461 258.419983,466.894104 258.926788,468.259277 
z"/>
<path fill="#1D3553" opacity="1.000000" stroke="none" 
	d="
M351.183289,407.994141 
	C349.528198,408.422791 347.873108,408.851440 345.724609,409.653015 
	C341.664917,411.229065 338.098694,412.432159 335.313202,413.371857 
	C335.535370,418.293121 336.141541,422.724548 335.742950,427.063690 
	C335.569519,428.951233 333.467285,430.771698 331.994385,432.399414 
	C330.460907,434.094086 328.313843,435.290955 326.997162,437.111877 
	C324.522308,440.534729 322.298401,440.822083 319.410583,437.700531 
	C318.437500,436.648682 317.312500,435.172180 316.100494,435.001617 
	C309.932922,434.133606 303.706390,433.056061 297.514923,433.138275 
	C288.918854,433.252380 280.340485,434.412018 271.743164,434.938690 
	C269.811676,435.056976 267.833649,434.405823 265.876312,434.113892 
	C261.141510,433.407684 256.413666,432.185974 251.669510,432.118408 
	C244.058502,432.009949 236.395935,433.290436 228.832382,432.797913 
	C222.992386,432.417572 218.428558,431.905518 218.046585,439.591705 
	C217.986465,440.801666 216.301224,441.915344 215.407318,443.103546 
	C214.416397,444.420654 213.156158,445.645477 212.559021,447.130005 
	C209.403107,454.975891 209.462738,454.999878 201.001831,454.998779 
	C201.001663,454.832123 201.001480,454.665436 200.956818,453.949310 
	C200.573853,452.920715 200.235397,452.441620 199.942810,451.498047 
	C200.093231,419.566772 200.247223,388.099945 200.239487,356.633148 
	C200.238541,352.731018 201.091110,351.146271 205.482803,351.171600 
	C235.783859,351.346466 266.086639,351.225067 296.388855,351.199188 
	C297.840454,351.197937 299.292053,351.199036 301.184052,351.199036 
	C301.184052,363.614075 301.176849,375.562805 301.186035,387.511566 
	C301.195862,400.294647 304.609619,403.620605 317.542694,403.662384 
	C328.355530,403.697296 339.168060,403.827698 350.133545,404.153564 
	C350.590881,404.609589 350.895386,404.827850 351.313293,405.406677 
	C351.345581,406.509521 351.264435,407.251831 351.183289,407.994141 
M275.602997,382.865875 
	C274.692596,382.577911 273.783173,382.042572 272.871674,382.039032 
	C259.069672,381.985504 245.267181,381.968719 231.465607,382.061951 
	C230.316055,382.069702 229.172256,382.930267 227.284531,383.674286 
	C223.215378,384.261536 221.455261,386.760284 222.034317,390.662140 
	C222.630936,394.682343 225.756866,395.274933 229.158524,395.259552 
	C243.621429,395.194092 258.084991,395.063995 272.546997,395.156586 
	C276.140808,395.179626 278.830933,394.268616 279.850891,390.663605 
	C280.838898,387.171478 278.963379,384.980499 275.602997,382.865875 
M244.499405,428.685211 
	C270.810638,428.720367 297.121887,428.771851 323.433075,428.750153 
	C325.012146,428.748840 327.314911,428.691284 328.013031,427.734650 
	C329.311737,425.954926 330.541534,423.360443 330.233368,421.344635 
	C329.720093,417.987457 326.845032,416.985077 323.411957,416.993805 
	C294.602875,417.067139 265.793457,417.016083 236.984161,417.002991 
	C233.653595,417.001495 230.322906,416.984558 226.992508,417.008179 
	C222.802109,417.037872 221.411942,419.993378 221.582092,423.312836 
	C221.731750,426.232788 222.785202,429.108643 227.017731,428.872559 
	C232.497971,428.566803 238.004486,428.732391 244.499405,428.685211 
z"/>
<path fill="#F9F9FA" opacity="1.000000" stroke="none" 
	d="
M351.300018,408.450806 
	C351.264435,407.251831 351.345581,406.509521 351.332153,405.051422 
	C350.818665,404.195679 350.399689,404.055756 349.980743,403.915802 
	C339.168060,403.827698 328.355530,403.697296 317.542694,403.662384 
	C304.609619,403.620605 301.195862,400.294647 301.186035,387.511566 
	C301.176849,375.562805 301.184052,363.614075 301.184052,351.199036 
	C299.292053,351.199036 297.840454,351.197937 296.388855,351.199188 
	C266.086639,351.225067 235.783859,351.346466 205.482803,351.171600 
	C201.091110,351.146271 200.238541,352.731018 200.239487,356.633148 
	C200.247223,388.099945 200.093231,419.566772 199.681580,451.624878 
	C198.862778,452.790405 198.351013,453.364655 197.839264,453.938904 
	C194.709961,453.620483 191.580643,453.302063 188.306396,452.968933 
	C188.306396,423.744934 188.306396,394.814209 188.306396,365.166290 
	C183.093750,369.624359 178.588226,372.869659 178.738831,380.809204 
	C179.301270,410.457336 178.371109,440.137726 179.146851,469.776031 
	C179.483032,482.619629 176.023422,493.130585 167.214767,502.624725 
	C167.114517,501.102997 166.946274,499.728760 166.944748,498.354370 
	C166.898987,457.031097 166.897095,415.707764 166.795074,374.384644 
	C166.784943,370.279236 168.035461,367.128204 171.056396,364.241913 
	C178.642715,356.993622 185.832687,349.327972 193.484070,342.152161 
	C195.312454,340.437439 198.317581,339.097748 200.790680,339.082581 
	C235.780991,338.868103 270.773071,338.862335 305.763885,339.011353 
	C307.971954,339.020752 310.715729,340.173340 312.293243,341.725891 
	C328.442505,357.619507 344.447601,373.661041 360.339111,389.812683 
	C361.823364,391.321075 363.046143,393.862518 363.055756,395.930542 
	C363.220093,431.234467 363.173676,466.539368 362.107727,502.301910 
	C358.690704,497.389740 355.273651,492.477600 351.691345,487.025909 
	C351.436188,486.308105 351.346344,486.129822 351.256470,485.951569 
	C351.309906,460.270203 351.363342,434.588837 351.300018,408.450806 
M328.832733,374.667664 
	C323.833344,369.814117 318.833923,364.960571 313.564575,359.844971 
	C313.564575,370.815826 313.564575,380.992279 313.564575,391.398254 
	C324.126709,391.398254 334.326813,391.398254 344.493439,391.398254 
	C344.556213,391.078491 344.661713,390.857513 344.602631,390.796875 
	C339.520813,385.579224 334.426270,380.373962 328.832733,374.667664 
z"/>
<path fill="#F8F8FA" opacity="1.000000" stroke="none" 
	d="
M890.649902,491.871185 
	C888.135498,500.224213 885.581604,508.147583 883.384338,516.168701 
	C882.670654,518.773987 881.536255,519.639709 878.936829,519.538513 
	C874.463867,519.364441 869.979309,519.490295 865.084290,519.490295 
	C860.718933,504.595337 856.389526,489.823029 851.703186,473.832977 
	C847.260254,489.771912 843.153564,504.504395 839.054443,519.209778 
	C838.290222,519.331909 837.824951,519.470947 837.359741,519.470581 
	C832.369629,519.466980 826.106934,521.257019 822.751404,518.905212 
	C819.473389,516.607666 819.075989,510.104431 817.564819,505.399017 
	C812.084106,488.332703 806.666626,471.246094 801.083069,453.720642 
	C806.966125,453.720642 812.521851,453.720642 818.583862,453.720642 
	C822.631836,468.413391 826.705627,483.199524 830.779358,497.985626 
	C831.058533,498.011993 831.337708,498.038361 831.616821,498.064697 
	C835.710632,483.211060 839.804443,468.357391 843.921814,453.418213 
	C849.278198,453.418213 854.385986,453.418213 859.665649,453.418213 
	C863.920227,468.042908 868.150574,482.584442 872.380981,497.125977 
	C872.735229,497.079376 873.089539,497.032776 873.443787,496.986176 
	C876.199768,486.477570 879.064270,475.995880 881.683472,465.453247 
	C884.718445,453.236938 884.624878,453.208191 897.205872,453.375885 
	C898.674622,453.395477 900.142029,453.516998 902.088928,453.615540 
	C898.240173,466.466461 894.494568,478.972961 890.649902,491.871185 
z"/>
<path fill="#F9FAFA" opacity="1.000000" stroke="none" 
	d="
M528.755310,463.756134 
	C541.558899,449.349915 557.288696,448.424438 574.992676,461.284851 
	C574.992676,455.418793 574.992676,450.008942 574.992676,444.599121 
	C574.992676,439.115204 574.992676,433.631287 574.992676,427.753845 
	C580.678345,427.753845 586.062378,427.753845 591.835205,427.753845 
	C591.835205,458.077606 591.835205,488.440521 591.835205,519.179321 
	C586.537354,519.179321 581.312256,519.179321 575.542603,519.179321 
	C575.356689,516.636963 575.160278,513.951111 574.900696,510.400909 
	C567.116760,520.524353 557.085083,523.026123 546.055664,520.569824 
	C536.398132,518.418945 528.677185,512.714722 524.779785,503.287598 
	C519.147278,489.663757 519.685974,476.391937 528.755310,463.756134 
M572.901123,475.885712 
	C568.589783,468.292175 561.379639,464.978760 553.248962,466.854614 
	C541.545837,469.554626 535.882202,481.679413 540.237671,494.709564 
	C542.636719,501.886963 548.929504,506.647980 556.267639,506.837708 
	C563.726440,507.030518 570.427307,502.775146 573.262695,495.952728 
	C575.940369,489.509857 575.839722,483.041534 572.901123,475.885712 
z"/>
<path fill="#1B3351" opacity="1.000000" stroke="none" 
	d="
M200.989105,455.374298 
	C209.462738,454.999878 209.403107,454.975891 212.559021,447.130005 
	C213.156158,445.645477 214.416397,444.420654 215.407318,443.103546 
	C216.301224,441.915344 217.986465,440.801666 218.046585,439.591705 
	C218.428558,431.905518 222.992386,432.417572 228.832382,432.797913 
	C236.395935,433.290436 244.058502,432.009949 251.669510,432.118408 
	C256.413666,432.185974 261.141510,433.407684 265.876312,434.113892 
	C267.833649,434.405823 269.811676,435.056976 271.743164,434.938690 
	C280.340485,434.412018 288.918854,433.252380 297.514923,433.138275 
	C303.706390,433.056061 309.932922,434.133606 316.100494,435.001617 
	C317.312500,435.172180 318.437500,436.648682 319.410583,437.700531 
	C322.298401,440.822083 324.522308,440.534729 326.997162,437.111877 
	C328.313843,435.290955 330.460907,434.094086 331.994385,432.399414 
	C333.467285,430.771698 335.569519,428.951233 335.742950,427.063690 
	C336.141541,422.724548 335.535370,418.293121 335.313202,413.371857 
	C338.098694,412.432159 341.664917,411.229065 345.614380,410.012512 
	C346.648285,411.235138 347.850159,412.464752 347.864899,413.708405 
	C348.019165,426.725342 347.862152,439.746307 348.060089,452.762115 
	C348.138275,457.904114 346.802551,462.113556 342.878723,465.594879 
	C341.867401,466.492157 341.711456,468.353546 340.910034,469.960999 
	C338.001190,469.029510 335.439667,467.379547 332.671478,466.883942 
	C322.738342,465.105530 312.735291,463.717499 302.399445,461.690125 
	C302.943939,459.925934 303.847687,458.653503 305.005188,457.023773 
	C304.203461,456.160950 303.455872,455.076172 302.456696,454.326935 
	C296.512390,449.869904 290.484192,445.524780 284.537201,441.071259 
	C281.286377,438.636871 269.095245,437.709900 266.050385,440.172577 
	C264.881622,441.117889 264.653931,443.226715 263.997437,444.805389 
	C255.642578,445.723450 251.031860,450.818054 248.796188,458.680420 
	C229.780777,461.744843 210.797623,464.804108 191.406754,467.872803 
	C191.590897,467.146454 192.068924,465.921356 192.792786,465.752960 
	C198.160019,464.504333 199.789688,460.336761 200.989105,455.374298 
M337.754913,454.613586 
	C337.694824,455.145691 337.634705,455.677826 337.574615,456.209930 
	C337.850616,456.215637 338.126648,456.221313 338.402679,456.226990 
	C338.359741,455.692749 338.316833,455.158508 337.754913,454.613586 
z"/>
<path fill="#F8F9FA" opacity="1.000000" stroke="none" 
	d="
M611.177124,531.174011 
	C621.242126,530.976990 626.553894,523.170593 622.932922,514.277710 
	C615.093811,495.025330 607.144226,475.817963 599.245667,456.589844 
	C598.943176,455.853394 598.701050,455.092102 598.068054,453.335968 
	C604.006287,453.335968 609.429810,453.153931 614.818604,453.504730 
	C615.782471,453.567535 616.912842,455.716614 617.441345,457.102600 
	C622.643250,470.744720 627.734192,484.429230 633.152466,498.891266 
	C633.938293,497.194824 634.594421,496.036896 635.028687,494.800964 
	C639.435974,482.257874 643.876831,469.725555 648.133667,457.131287 
	C649.059998,454.390869 650.228821,453.018707 653.376831,453.227631 
	C657.832214,453.523407 662.321899,453.302673 667.194397,453.302673 
	C666.967102,454.560577 666.946533,455.514526 666.621582,456.350128 
	C657.696350,479.301758 648.756409,502.247711 639.767334,525.174438 
	C638.678223,527.952209 637.414978,530.677429 636.030579,533.321289 
	C629.254822,546.260925 616.816223,547.005981 605.456360,544.605896 
	C604.703491,544.446838 603.721924,543.069275 603.683472,542.220642 
	C603.498413,538.125977 603.600098,534.018433 603.600098,529.684448 
	C606.317139,530.248718 608.535645,530.709412 611.177124,531.174011 
z"/>
<path fill="#F9F9FA" opacity="1.000000" stroke="none" 
	d="
M752.804199,474.360535 
	C748.303406,474.020630 744.203796,473.755157 739.854797,473.473541 
	C740.466736,466.558167 743.478210,461.707275 748.551758,457.969360 
	C758.071289,450.955994 776.524231,450.026184 786.661560,456.152618 
	C793.152771,460.075500 796.705505,466.003540 796.833923,473.462189 
	C797.094727,488.612213 796.911865,503.769897 796.911865,519.323669 
	C791.760925,519.323669 786.690979,519.323669 781.321533,519.323669 
	C781.124329,517.315430 780.921143,515.246582 780.643799,512.422852 
	C773.360901,519.988586 764.890564,522.697388 755.115906,520.831604 
	C739.855347,517.918640 732.355835,501.233521 741.130310,489.681732 
	C745.340759,484.138489 751.538330,482.033051 758.048096,480.992279 
	C765.087341,479.866852 772.199890,479.200256 779.072937,478.358917 
	C780.508118,472.039734 779.097778,468.328949 774.895325,466.403931 
	C768.789368,463.606995 760.974548,465.537109 757.350037,470.526367 
	C756.253296,472.036133 754.602478,473.143372 752.804199,474.360535 
M767.164917,508.724304 
	C777.741272,507.023041 781.979553,500.487152 779.691895,489.051544 
	C773.499329,490.105591 767.260193,490.988464 761.107788,492.283691 
	C757.565002,493.029572 754.849304,495.526093 755.113037,499.249817 
	C755.304443,501.951294 756.417786,505.316986 758.339844,506.957092 
	C760.188171,508.534302 763.604431,508.273956 767.164917,508.724304 
z"/>
<path fill="#F9F9FA" opacity="1.000000" stroke="none" 
	d="
M450.998444,453.143463 
	C456.131439,453.143463 461.264465,453.143463 466.799988,453.143463 
	C466.799988,456.517822 466.799988,459.111816 466.799988,462.909393 
	C471.822540,457.257446 476.690002,453.443542 483.368164,452.375000 
	C500.228027,449.677338 511.876099,459.382996 511.875397,476.387970 
	C511.874817,490.544830 511.875275,504.701691 511.875275,519.249512 
	C506.163177,519.249512 500.726807,519.249512 494.554688,519.249512 
	C494.554688,514.854309 494.595459,510.237518 494.546051,505.621643 
	C494.448120,496.467804 494.568573,487.300354 494.086853,478.165497 
	C493.713898,471.093140 490.988434,467.938934 485.660645,466.809540 
	C479.203125,465.440643 472.485413,468.029297 469.948242,473.674072 
	C468.433716,477.043640 467.577087,480.965179 467.477509,484.666870 
	C467.169006,496.133728 467.364716,507.614197 467.364716,519.351685 
	C461.505951,519.351685 456.109009,519.351685 450.332367,519.351685 
	C450.237061,517.400635 450.150299,515.623596 450.060760,513.030884 
	C449.987640,511.142273 449.917297,510.069366 449.942627,508.536621 
	C449.981598,495.052704 449.924835,482.028656 449.971863,468.548798 
	C450.383240,463.109802 450.690857,458.126648 450.998444,453.143463 
z"/>
<path fill="#FAFBFC" opacity="1.000000" stroke="none" 
	d="
M673.935059,499.999542 
	C673.932922,476.207092 673.932922,452.914459 673.932922,429.246460 
	C679.815002,429.246460 685.551453,429.246460 691.766113,429.246460 
	C691.766113,453.732269 691.766113,478.428772 691.766113,503.599060 
	C705.605591,503.599060 718.982239,503.599060 732.760620,503.599060 
	C732.760620,509.101959 732.760620,514.138184 732.760620,519.455200 
	C713.402771,519.455200 694.008972,519.455200 673.937256,519.455200 
	C673.937256,512.994690 673.937256,506.747040 673.935059,499.999542 
z"/>
<path fill="#FBFBFC" opacity="1.000000" stroke="none" 
	d="
M436.101990,511.003876 
	C435.954956,513.646545 435.807953,516.289246 435.644470,519.227966 
	C429.766296,519.227966 424.016022,519.227966 418.017151,519.227966 
	C418.017151,489.092896 418.017151,459.185455 418.017151,429.082092 
	C423.974884,429.082092 429.733887,429.082092 436.014557,429.082092 
	C436.014557,430.573181 436.014557,431.845001 436.013977,434.017395 
	C436.042908,460.279968 436.072449,485.641907 436.101990,511.003876 
z"/>
<path fill="#1C3555" opacity="1.000000" stroke="none" 
	d="
M436.535156,511.003174 
	C436.072449,485.641907 436.042908,460.279968 436.098969,434.455750 
	C437.319214,433.050598 438.453857,432.107727 439.588501,431.164856 
	C437.888489,429.789948 436.378357,427.904724 434.435669,427.181915 
	C432.444794,426.441162 430.030609,426.838135 428.681396,426.776978 
	C430.448608,423.470245 432.347565,420.447266 433.731537,417.204468 
	C435.872803,412.187317 437.476074,411.467834 442.166199,414.053986 
	C443.329712,414.695557 444.531708,415.267944 445.720306,415.863495 
	C453.832886,419.928650 454.789856,421.524292 450.260101,429.122864 
	C445.364014,437.335938 448.817932,444.681458 450.983459,452.745483 
	C450.690857,458.126648 450.383240,463.109802 449.607422,468.689270 
	C448.772034,469.987274 448.089386,470.686920 448.084717,471.391052 
	C448.008453,482.885986 447.970398,494.381989 448.088165,505.876038 
	C448.098907,506.922058 449.233978,507.956604 449.846924,508.996490 
	C449.917297,510.069366 449.987640,511.142273 449.962158,512.609375 
	C445.566986,512.336548 441.267639,511.669495 436.535156,511.003174 
z"/>
<path fill="#1B3351" opacity="1.000000" stroke="none" 
	d="
M198.234177,453.955841 
	C198.351013,453.364655 198.862778,452.790405 199.635742,452.089355 
	C200.235397,452.441620 200.573853,452.920715 200.956390,453.699310 
	C200.210022,453.990112 199.419556,453.981445 198.234177,453.955841 
z"/>
<path fill="#0E2746" opacity="1.000000" stroke="none" 
	d="
M351.105164,486.084015 
	C351.346344,486.129822 351.436188,486.308105 351.494720,486.784363 
	C351.293518,486.793701 351.123688,486.505096 351.105164,486.084015 
z"/>
<path fill="#1F3553" opacity="1.000000" stroke="none" 
	d="
M184.906433,519.929688 
	C189.816284,509.398956 194.582626,499.216766 199.787048,488.098633 
	C206.677292,503.054657 213.159042,517.123962 219.890259,531.734741 
	C206.036957,531.734741 193.013138,531.734741 179.393707,531.734741 
	C181.290894,527.686646 183.026901,523.982422 184.906433,519.929688 
z"/>
<path fill="#1F3553" opacity="1.000000" stroke="none" 
	d="
M336.873352,504.143372 
	C341.057678,513.371277 345.099243,522.249451 349.360840,531.611023 
	C336.053070,531.611023 323.064941,531.611023 309.515778,531.611023 
	C315.941010,517.372253 322.371887,503.120972 329.212311,487.962158 
	C331.997498,493.827057 334.364014,498.810364 336.873352,504.143372 
z"/>
<path fill="#27405E" opacity="1.000000" stroke="none" 
	d="
M306.375702,620.963745 
	C310.557617,621.835388 311.564575,624.623413 311.959045,628.362305 
	C280.393188,628.362305 249.030655,628.362305 217.673492,628.362305 
	C217.932068,622.989380 219.962128,620.984436 225.526611,620.978271 
	C252.330872,620.948669 279.135193,620.955872 306.375702,620.963745 
z"/>
<path fill="#1F3553" opacity="1.000000" stroke="none" 
	d="
M199.849884,560.758484 
	C188.826584,560.425232 179.783508,557.266907 174.636078,547.070068 
	C174.412079,546.626343 174.174164,546.180481 174.030045,545.708984 
	C173.939819,545.413879 174.013260,545.068787 174.013260,544.324707 
	C190.955704,544.324707 207.919754,544.324707 225.261749,544.324707 
	C221.881775,554.372192 214.185425,558.413330 204.739700,560.197632 
	C203.271652,560.474976 201.767609,560.561646 199.849884,560.758484 
z"/>
<path fill="#1F3655" opacity="1.000000" stroke="none" 
	d="
M336.742737,559.934326 
	C320.929565,562.115662 310.115021,557.527954 304.421509,546.428650 
	C304.144714,545.889038 304.041046,545.260498 303.722748,544.246704 
	C320.963959,544.246704 337.804382,544.246704 355.267883,544.246704 
	C352.459839,553.569641 345.864136,557.909485 336.742737,559.934326 
z"/>
<path fill="#1D3553" opacity="1.000000" stroke="none" 
	d="
M264.381989,444.907379 
	C264.653931,443.226715 264.881622,441.117889 266.050385,440.172577 
	C269.095245,437.709900 281.286377,438.636871 284.537201,441.071259 
	C290.484192,445.524780 296.512390,449.869904 302.456696,454.326935 
	C303.455872,455.076172 304.203461,456.160950 305.005188,457.023773 
	C303.847687,458.653503 302.943939,459.925934 302.020569,461.553650 
	C295.297058,460.859222 288.571960,459.920563 281.911194,458.645538 
	C280.857758,458.443848 279.843628,456.853912 279.239960,455.684570 
	C276.156860,449.712494 271.812561,445.558990 264.381989,444.907379 
z"/>
<path fill="#1F3655" opacity="1.000000" stroke="none" 
	d="
M266.455383,594.225708 
	C273.668304,597.845947 274.700134,600.458435 272.539520,609.151489 
	C267.666290,609.151489 262.726837,609.151489 257.758484,609.151489 
	C253.794693,600.373352 257.089203,594.387146 266.455383,594.225708 
z"/>
<path fill="#223A58" opacity="1.000000" stroke="none" 
	d="
M258.764709,467.892822 
	C258.419983,466.894104 258.142639,466.272461 258.069977,465.627747 
	C257.586212,461.335815 258.999054,457.970032 263.344055,456.688324 
	C267.326324,455.513672 269.640076,457.940613 270.969116,461.309967 
	C272.481506,465.144196 271.727692,468.702148 268.165680,470.927307 
	C264.370880,473.297943 261.207397,471.929138 258.764709,467.892822 
z"/>
<path fill="#F5F6F7" opacity="1.000000" stroke="none" 
	d="
M243.999542,428.690125 
	C238.004486,428.732391 232.497971,428.566803 227.017731,428.872559 
	C222.785202,429.108643 221.731750,426.232788 221.582092,423.312836 
	C221.411942,419.993378 222.802109,417.037872 226.992508,417.008179 
	C230.322906,416.984558 233.653595,417.001495 236.984161,417.002991 
	C265.793457,417.016083 294.602875,417.067139 323.411957,416.993805 
	C326.845032,416.985077 329.720093,417.987457 330.233368,421.344635 
	C330.541534,423.360443 329.311737,425.954926 328.013031,427.734650 
	C327.314911,428.691284 325.012146,428.748840 323.433075,428.750153 
	C297.121887,428.771851 270.810638,428.720367 243.999542,428.690125 
z"/>
<path fill="#FBFBFC" opacity="1.000000" stroke="none" 
	d="
M275.977081,383.511719 
	C278.963379,384.980499 280.838898,387.171478 279.850891,390.663605 
	C278.830933,394.268616 276.140808,395.179626 272.546997,395.156586 
	C258.084991,395.063995 243.621429,395.194092 229.158524,395.259552 
	C225.756866,395.274933 222.630936,394.682343 222.034317,390.662140 
	C221.455261,386.760284 223.215378,384.261536 228.105743,383.664856 
	C244.610336,383.607544 260.293701,383.559631 275.977081,383.511719 
z"/>
<path fill="#0E2746" opacity="1.000000" stroke="none" 
	d="
M275.790039,383.188782 
	C260.293701,383.559631 244.610336,383.607544 228.476379,383.524994 
	C229.172256,382.930267 230.316055,382.069702 231.465607,382.061951 
	C245.267181,381.968719 259.069672,381.985504 272.871674,382.039032 
	C273.783173,382.042572 274.692596,382.577911 275.790039,383.188782 
z"/>
<path fill="#0E2746" opacity="1.000000" stroke="none" 
	d="
M350.133545,404.153564 
	C350.399689,404.055756 350.818665,404.195679 351.218750,404.690857 
	C350.895386,404.827850 350.590881,404.609589 350.133545,404.153564 
z"/>
<path fill="#223A58" opacity="1.000000" stroke="none" 
	d="
M329.082703,374.917755 
	C334.426270,380.373962 339.520813,385.579224 344.602631,390.796875 
	C344.661713,390.857513 344.556213,391.078491 344.493439,391.398254 
	C334.326813,391.398254 324.126709,391.398254 313.564575,391.398254 
	C313.564575,380.992279 313.564575,370.815826 313.564575,359.844971 
	C318.833923,364.960571 323.833344,369.814117 329.082703,374.917755 
z"/>
<path fill="#1F3655" opacity="1.000000" stroke="none" 
	d="
M573.066772,476.238831 
	C575.839722,483.041534 575.940369,489.509857 573.262695,495.952728 
	C570.427307,502.775146 563.726440,507.030518 556.267639,506.837708 
	C548.929504,506.647980 542.636719,501.886963 540.237671,494.709564 
	C535.882202,481.679413 541.545837,469.554626 553.248962,466.854614 
	C561.379639,464.978760 568.589783,468.292175 573.066772,476.238831 
z"/>
<path fill="#1D3553" opacity="1.000000" stroke="none" 
	d="
M338.014404,454.618927 
	C338.316833,455.158508 338.359741,455.692749 338.402649,456.226990 
	C338.126648,456.221313 337.850616,456.215637 337.574585,456.209930 
	C337.634705,455.677826 337.694824,455.145691 338.014404,454.618927 
z"/>
<path fill="#223A58" opacity="1.000000" stroke="none" 
	d="
M766.748352,508.772675 
	C763.604431,508.273956 760.188171,508.534302 758.339844,506.957092 
	C756.417786,505.316986 755.304443,501.951294 755.113037,499.249817 
	C754.849304,495.526093 757.565002,493.029572 761.107788,492.283691 
	C767.260193,490.988464 773.499329,490.105591 779.691895,489.051544 
	C781.979553,500.487152 777.741272,507.023041 766.748352,508.772675 
z"/>
<path fill="#19314F" opacity="1.000000" stroke="none" 
	d="
M449.942627,508.536621 
	C449.233978,507.956604 448.098907,506.922058 448.088165,505.876038 
	C447.970398,494.381989 448.008453,482.885986 448.084717,471.391052 
	C448.089386,470.686920 448.772034,469.987274 449.503662,469.145081 
	C449.924835,482.028656 449.981598,495.052704 449.942627,508.536621 
z"/>
</svg>